<svg id="eqmCdJyUXlP1" xmlns="http://www.w3.org/2000/svg" xmlns:xlink="http://www.w3.org/1999/xlink" viewBox="0 0 300 300" shape-rendering="geometricPrecision" text-rendering="geometricPrecision" project-id="becb1fe8f6fc47febfc96614c6094fc5" export-id="9d774304d53341be81d7bcf7850500ad" cached="false"><ellipse rx="133.856163" ry="112.779907" transform="matrix(1.120606 0 0 1.330024 151.661743 149.999983)" fill="#d2dbed" stroke-width="0"/><ellipse rx="133.856163" ry="112.779907" transform="matrix(.237376 0 0 0.298758 217.367376 79.507881)" fill="#7497df" stroke-width="0"/><ellipse rx="133.856163" ry="112.779907" transform="matrix(.237376 0 0 0.298758 93.125047 75.102124)" fill="#7497df" stroke-width="0"/><ellipse rx="133.856163" ry="112.779907" transform="matrix(.069061 0 0 0.077548 83.880807 54.559838)" fill="#96b6fa" stroke-width="0"/><ellipse rx="133.856163" ry="112.779907" transform="matrix(.069061 0 0 0.077548 208.123136 58.722431)" fill="#96b6fa" stroke-width="0"/><ellipse rx="133.856163" ry="112.779907" transform="matrix(.031654 0 0 0.036909 88.887964 62.885025)" fill="#96b6fa" stroke-width="0"/><ellipse rx="133.856163" ry="112.779907" transform="matrix(.031654 0 0 0.036909 215.629786 67.468287)" fill="#96b6fa" stroke-width="0"/><path d="M44.142029,172.719042q91.543316,67.420415,198.55003,12.989254" fill="none" stroke="#3f5787" stroke-width="7" stroke-linecap="round" stroke-linejoin="round"/><path d="M245.6383,188.62551c-4.94918-2.47459-3.78508-6.99023-3.78508-11.6322" transform="matrix(3.304334 0 0 2.308971-556.079812-238.407756)" fill="none" stroke="#3f5787" stroke-width="3" stroke-linecap="round" stroke-linejoin="round"/><path d="M245.6383,188.62551c-4.94918-2.47459-3.78508-6.99023-3.78508-11.6322" transform="matrix(-1.999084-2.631024 1.838482-1.396901 189.050154 1066.776147)" fill="none" stroke="#3f5787" stroke-width="3" stroke-linecap="round" stroke-linejoin="round"/></svg>
